<svg xmlns="http://www.w3.org/2000/svg" xmlns:xlink="http://www.w3.org/1999/xlink" width="1587" zoomAndPan="magnify" viewBox="0 0 1190.25 1683.749949" height="2245" preserveAspectRatio="xMidYMid meet" version="1.0"><defs><g/><clipPath id="7bb306065d"><path d="M 0.339844 0.851562 L 509.160156 0.851562 L 509.160156 477.867188 L 0.339844 477.867188 Z M 0.339844 0.851562 " clip-rule="nonzero"/></clipPath><clipPath id="50263057df"><path d="M 0.339844 0.851562 L 509.160156 0.851562 L 509.160156 477.867188 L 0.339844 477.867188 Z M 0.339844 0.851562 " clip-rule="nonzero"/></clipPath><clipPath id="3a7d58b25f"><rect x="0" width="510" y="0" height="478"/></clipPath><clipPath id="9b6b5ee127"><rect x="0" width="496" y="0" height="370"/></clipPath><clipPath id="7ddece753d"><path d="M 0.339844 228.03125 L 509.160156 228.03125 L 509.160156 263.550781 L 0.339844 263.550781 Z M 0.339844 228.03125 " clip-rule="nonzero"/></clipPath><clipPath id="043ee0cf0d"><path d="M 0.339844 0.03125 L 509.160156 0.03125 L 509.160156 35.550781 L 0.339844 35.550781 Z M 0.339844 0.03125 " clip-rule="nonzero"/></clipPath><clipPath id="b076c7e54b"><rect x="0" width="510" y="0" height="36"/></clipPath><clipPath id="6e6e28fa8d"><rect x="0" width="511" y="0" height="479"/></clipPath></defs><g transform="matrix(1, 0, 0, 1, 340, 634)"><g clip-path="url(#6e6e28fa8d)"><g clip-path="url(#7bb306065d)"><g transform="matrix(1, 0, 0, 1, 0, 0.000000000000113687)"><g clip-path="url(#3a7d58b25f)"><g clip-path="url(#50263057df)"><path fill="#29e188" d="M 0.339844 0.851562 L 509.03125 0.851562 L 509.03125 477.867188 L 0.339844 477.867188 Z M 0.339844 0.851562 " fill-opacity="1" fill-rule="nonzero"/></g></g></g></g><g transform="matrix(1, 0, 0, 1, 7, 54)"><g clip-path="url(#9b6b5ee127)"><g fill="#ffffff" fill-opacity="1"><g transform="translate(0.323367, 288.576485)"><g><path d="M 63.421875 0 L 25.15625 0 L 25.15625 -193.59375 L 63.421875 -193.59375 Z M 63.421875 0 "/></g></g></g><g fill="#ffffff" fill-opacity="1"><g transform="translate(89.039291, 288.576485)"><g><path d="M 67.796875 2.78125 C 51.378906 2.78125 37.738281 -0.328125 26.875 -6.546875 C 16.019531 -12.773438 8.117188 -21.140625 3.171875 -31.640625 L 24.765625 -57.859375 L 28.078125 -57.859375 C 31.609375 -49.390625 36.613281 -42.703125 43.09375 -37.796875 C 49.582031 -32.898438 57.109375 -30.453125 65.671875 -30.453125 C 75.296875 -30.453125 82.445312 -33.253906 87.125 -38.859375 C 91.800781 -44.460938 94.140625 -53.578125 94.140625 -66.203125 L 94.140625 -193.59375 L 132.28125 -193.59375 L 132.28125 -65.546875 C 132.28125 -42.148438 126.960938 -24.910156 116.328125 -13.828125 C 105.691406 -2.753906 89.515625 2.78125 67.796875 2.78125 Z M 67.796875 2.78125 "/></g></g></g><g fill="#ffffff" fill-opacity="1"><g transform="translate(245.285249, 288.576485)"><g><path d="M 60.25 0 L 25.15625 0 L 25.15625 -193.59375 L 75.21875 -193.59375 L 124.203125 -51.25 L 126.984375 -51.25 L 175.71875 -193.59375 L 224.578125 -193.59375 L 224.578125 0 L 188.296875 0 L 188.296875 -127.90625 L 184.984375 -128.4375 L 140.234375 0 L 108.3125 0 L 63.5625 -128.4375 L 60.25 -127.90625 Z M 60.25 0 "/></g></g></g></g></g><g clip-path="url(#7ddece753d)"><g transform="matrix(1, 0, 0, 1, 0, 228)"><g clip-path="url(#b076c7e54b)"><g clip-path="url(#043ee0cf0d)"><path fill="#ffffff" d="M 0.339844 0.03125 L 509.136719 0.03125 L 509.136719 35.550781 L 0.339844 35.550781 Z M 0.339844 0.03125 " fill-opacity="1" fill-rule="nonzero"/></g></g></g></g></g></g></svg>